<svg width="57" height="53" fill="none" xmlns="http://www.w3.org/2000/svg"><path d="M43.6 17.6L38 12l1.8-1.7 3.8 3.8 6.3-6.3 1.7 1.8-8 8z" fill="#0E6FFF"/><path d="M44.8 23.7H32.9V11.9C32.9 5.4 38.2 0 44.8 0c6.5 0 11.9 5.3 11.9 11.9 0 6.6-5.3 11.8-11.9 11.8zm-9.3-2.5h9.4c5.2 0 9.4-4.2 9.4-9.4s-4.2-9.4-9.4-9.4-9.4 4.2-9.4 9.4v9.4zm-10.8 4.9c-3.4 0-6.2-2.8-6.2-6.2 0-3.4 2.8-6.2 6.2-6.2 3.4 0 6.2 2.8 6.2 6.2 0 3.4-2.8 6.2-6.2 6.2zm0-9.9c-2 0-3.7 1.7-3.7 3.7s1.7 3.7 3.7 3.7 3.7-1.7 3.7-3.7-1.6-3.7-3.7-3.7z" fill="#0E6FFF"/><path d="M34.3 37.7h-2.5v-5.5c0-1-.6-1.9-1.5-2.3l-5.6-2.5-5.6 2.5c-.9.4-1.5 1.3-1.5 2.3v5.5h-2.5v-5.5c0-2 1.2-3.8 3-4.6l6.6-3 6.6 3c1.8.8 3 2.6 3 4.6v5.5zm21.1 14.4H0l11.4-12h32.7l11.3 12zM5.8 49.6h43.8l-6.6-7H12.5l-6.7 7z" fill="#0E6FFF"/><path d="M38.8 47.3H16.6l4.8-7.3h12.5l4.9 7.3zm-17.5-2.5h12.9l-1.5-2.3h-9.8l-1.6 2.3z" fill="#0E6FFF"/></svg>