<svg width="52" height="51" fill="none" xmlns="http://www.w3.org/2000/svg"><path d="M25.9 24.7l-5.4-5.3 1.8-1.8 3.6 3.6 6-6.1 1.8 1.8-7.8 7.8zM42.3 8V5.5c.8 0 1.5-.7 1.5-1.5s-.7-1.5-1.5-1.5H9.7c-.9 0-1.5.7-1.5 1.5s.7 1.5 1.5 1.5V8c-2.2 0-4-1.8-4-4s1.8-4 4-4h32.7c2.2 0 4 1.8 4 4-.1 2.2-1.9 4-4.1 4zm1 42.8h-2.5c0-.8-.7-1.5-1.5-1.5H12.7c-.8 0-1.5.7-1.5 1.5H8.7c0-2.2 1.8-4 4-4h26.7c2.1.1 3.9 1.8 3.9 4z" fill="#0E6FFF"/><path d="M26 34.6c-8.2 0-14.9-6.7-14.9-14.9V5.5h29.8v14.2c0 8.2-6.7 14.9-14.9 14.9zM13.6 8v11.7c0 6.8 5.6 12.4 12.4 12.4 6.8 0 12.4-5.6 12.4-12.4V8H13.6z" fill="#0E6FFF"/><path d="M26 41.7c-2.7 0-4.8-2.2-4.8-4.8 0-2.7 2.2-4.8 4.8-4.8 2.6 0 4.8 2.2 4.8 4.8 0 2.7-2.1 4.8-4.8 4.8zm0-7.1c-1.3 0-2.3 1.1-2.3 2.3 0 1.2 1.1 2.3 2.3 2.3 1.2 0 2.3-1.1 2.3-2.3 0-1.2-1-2.3-2.3-2.3zm2.4 8.4h-4.9v2.5h4.9V43zM10.1 27.1l-5.5-3C1.8 22.5 0 19.5 0 16.3v-3.7c0-1.8 1.5-3.3 3.3-3.3h6.3v2.5H3.2c-.4 0-.8.4-.8.8v3.7c0 2.3 1.3 4.5 3.3 5.6l5.5 3-1.1 2.2zm31.8 0l-1.2-2.2 5.5-3c2-1.1 3.3-3.3 3.3-5.6v-3.7c0-.4-.4-.8-.8-.8h-6.3V9.3h6.3c1.8 0 3.3 1.5 3.3 3.3v3.7c0 3.2-1.8 6.2-4.6 7.8l-5.5 3z" fill="#0E6FFF"/></svg>