<svg width="66" height="54" fill="none" xmlns="http://www.w3.org/2000/svg"><path d="M31.9 18.3l-5.3-5.4 1.8-1.7 3.5 3.5 6.1-6 1.8 1.7-7.9 7.9z" fill="#0E6FFF"/><path d="M32.8 26.5c-7.3 0-13.2-5.9-13.2-13.2C19.6 6 25.5 0 32.8 0 40.1 0 46 5.9 46 13.2c0 7.3-5.9 13.3-13.2 13.3zm0-24c-5.9 0-10.7 4.8-10.7 10.7 0 5.9 4.8 10.8 10.7 10.8 5.9 0 10.7-4.8 10.7-10.7 0-5.9-4.8-10.8-10.7-10.8zm-7.9 50.6l1.5-8.8-6.4-6.2 8.9-1.3 4-8 4 8 8.9 1.3-6.4 6.2 1.5 8.8-7.9-4.2-8.1 4.2zm7.9-7l4.6 2.4-.9-5.1 3.7-3.6-5.1-.7-2.3-4.7-2.3 4.7-5.1.7 3.7 3.6-.9 5.1 4.6-2.4z" fill="#0E6FFF"/><path d="M10.3 46.7l1.4-8.1-5.9-5.8 8.2-1.2 3.7-7.4 3.6 7.4 5.7.8-.3 2.5-7-1-2-4.1-2 4.1-4.5.6 3.2 3.2-.8 4.5 4.1-2.1 4 2.1-1.2 2.2-2.8-1.5-7.4 3.8zm51.9-14l-6.1-3.3 1.1-2.2 1.7.9-.5-2.5 1.8-1.8-2.4-.3-1.2-2.3-1.1 2.3-2.5.3 1.4 1.3-1.8 1.8-4.9-4.8 6.2-.9 2.7-5.6 2.8 5.6 6.2.9-4.5 4.4 1.1 6.2zm-58.8 0l1-6.2L0 22.1l6.2-.9 2.7-5.6 2.8 5.6 6.2.9-4.9 4.8-1.8-1.8 1.3-1.3-2.5-.3-1.1-2.3-1.1 2.3-2.5.3 1.8 1.8-.4 2.5 1.7-.9 1.1 2.2-6.1 3.3zm51.8 14l-7.3-3.8-2.9 1.5-1.1-2.2 4-2.1 4 2.1-.7-4.5 3.2-3.2-4.5-.6-2-4.1-2 4.1-7 1-.4-2.5 5.7-.8 3.7-7.4 3.7 7.4 8.2 1.2-6 5.8 1.4 8.1z" fill="#0E6FFF"/></svg>