<svg width="16" height="16" fill="none" xmlns="http://www.w3.org/2000/svg"><path d="M12 14.667H4a1.333 1.333 0 01-1.333-1.334V2.667c0-.737.597-1.334 1.333-1.334h4.667c.007 0 .014.002.021.004a.1.1 0 00.02.004.676.676 0 01.173.034l.018.006a.658.658 0 01.24.152l4 4a.658.658 0 01.133.196c.007.014.011.03.017.045l.006.017a.65.65 0 01.032.172.102.102 0 00.005.018.09.09 0 01.001.019v7.333c0 .737-.597 1.334-1.333 1.334zm-8-12v10.666h8V6.667H8.667A.667.667 0 018 6V2.667H4zm5.333.942v1.724h1.724L9.333 3.61z" fill="#0E6FFF"/></svg>