<svg width="48" height="55" fill="none" xmlns="http://www.w3.org/2000/svg"><g clip-path="url(#clip0)" fill="#0E6FFF"><path d="M23.2 13.6l-4.5-4.4 1.8-1.8 2.7 2.7 4.5-4.5 1.8 1.7-6.3 6.3z"/><path d="M24.1 22.4l-6.6-6.6c-3.6-3.6-3.6-9.5 0-13.1 3.6-3.6 9.5-3.6 13.1 0 3.6 3.6 3.6 9.5 0 13.1l-6.5 6.6zm0-19.9c-1.8 0-3.5.7-4.8 2-2.6 2.6-2.6 6.9 0 9.6l4.8 4.8 4.8-4.8c2.6-2.6 2.6-6.9 0-9.6-1.3-1.3-3-2-4.8-2zM6 14.6c-3.3 0-6-2.7-6-6s2.7-6 6-6 6 2.7 6 6-2.8 6-6 6zm0-9.4c-2 0-3.5 1.5-3.5 3.4S4 12.1 6 12.1s3.5-1.5 3.5-3.5S7.9 5.2 6 5.2zm2.8 49.5H0v-34C0 17.6 2.6 15 5.7 15c1.6 0 3.1.7 4.2 1.8l12.4 11.3-4.3 4.3-6.6-4.2v5.3L8.8 54.7zm-6.3-2.5h4.1l2.3-19v-6.7L5 24l1.4-2 11.3 7.2 1-1-10.6-9.7c-.6-.7-1.5-1-2.4-1-1.8 0-3.2 1.4-3.2 3.2v31.5zM42 14.6c-3.3 0-6-2.7-6-6s2.7-6 6-6 6 2.7 6 6-2.7 6-6 6zm0-9.4c-1.9 0-3.5 1.5-3.5 3.5s1.5 3.5 3.5 3.5c1.9 0 3.5-1.5 3.5-3.5S43.9 5.2 42 5.2zm5.9 49.5h-8.8l-2.6-21.4V20.7c0-3.2 2.6-5.7 5.7-5.7 3.2 0 5.7 2.6 5.7 5.7v34zm-6.6-2.5h4.1V20.7c0-1.8-1.4-3.2-3.2-3.2-1.8 0-3.2 1.4-3.2 3.2v12.5l2.3 19z"/><path d="M29.9 32.4l-4.3-4.3L38 16.8l1.7 1.8-10.4 9.6.9 1 6.8-4.4 1.4 2.1-8.5 5.5z"/><path d="M24.1 36.1c-1 0-2-.4-2.8-1.1l-1.7-1.7 1.8-1.8 1.7 1.7c.5.5 1.4.5 2 0l.1-.1 4.1-3.3 1.6 2-4.1 3.2c-.8.7-1.7 1.1-2.7 1.1zm0-9.2h-3.6v2.5h3.6v-2.5z"/></g><defs><clipPath id="clip0"><path fill="#fff" d="M0 0h47.9v54.7H0z"/></clipPath></defs></svg>