<svg width="40" height="55" fill="none" xmlns="http://www.w3.org/2000/svg"><g clip-path="url(#clip0)" fill="#0E6FFF"><path d="M18.5 22.8L13.7 18l1.7-1.8 3.1 3.1 5.2-5.2 1.7 1.8-6.9 6.9z"/><path d="M19.6 36c-9.9 0-18-8.1-18-18s8.1-18 18-18 18 8.1 18 18c0 10-8.1 18-18 18zm0-33.5C11 2.5 4 9.5 4 18c0 8.6 7 15.5 15.5 15.5 8.6 0 15.5-7 15.5-15.5.1-8.5-6.9-15.5-15.4-15.5z"/><path d="M19.6 31.2v-2.5c1 0 1.9-.1 2.8-.4l.6 2.4c-1.2.3-2.3.5-3.4.5zm-3.5-.5c-1.1-.3-2.2-.7-3.2-1.3l1.3-2.2c.8.5 1.7.8 2.6 1.1l-.7 2.4zm10-1.3l-1.2-2.2c.8-.5 1.6-1 2.2-1.7l1.8 1.8c-.9.9-1.8 1.6-2.8 2.1zm-15.9-2.1c-.8-.8-1.5-1.7-2.1-2.7l2.2-1.2c.5.8 1 1.6 1.7 2.2l-1.8 1.7zm20.7-2.7l-2.2-1.3c.5-.8.8-1.7 1.1-2.6l2.4.7c-.2 1.2-.7 2.2-1.3 3.2zM6.8 21.4c-.3-1.1-.4-2.2-.4-3.4v-.1l1 .1h1.5c0 1 .1 1.9.4 2.8l-2.5.6zm23.4-3.3c0-1-.1-1.9-.4-2.8l2.4-.6c.3 1.1.4 2.2.4 3.4h-2.4zM9.3 15.2l-2.4-.7c.3-1.1.7-2.2 1.3-3.2l2.2 1.3c-.5.9-.9 1.7-1.1 2.6zm19.5-2.5c-.5-.8-1-1.5-1.7-2.2l1.8-1.8c.8.8 1.5 1.7 2.1 2.7l-2.2 1.3zM12 10.5l-1.8-1.8c.9-.8 1.8-1.5 2.8-2.1l1.2 2.2c-.8.4-1.5 1-2.2 1.7zm12.9-1.7c-.8-.5-1.7-.8-2.6-1.1l.7-2.4c1.1.3 2.2.7 3.2 1.3l-1.3 2.2zm-8.1-1.1l-.6-2.4c1-.3 2.1-.4 3.2-.4h.2v1.3l.3 1.2h-.3c-1 0-1.9.1-2.8.3zm-1.7 46.6l-6-7L0 48.8l5.6-15.6L8 34 3.8 45.6l6.3-1 4.1 4.8 4.2-11.8 2.4.8-5.7 15.9zm8.9 0l-4-11.1 2.4-.8 2.5 7 4.2-4.8 6.2 1-4.3-12 2.4-.8 5.7 16-9.1-1.5-6 7z"/></g><defs><clipPath id="clip0"><path fill="#fff" d="M0 0h39.1v54.3H0z"/></clipPath></defs></svg>