<svg width="54" height="54" fill="none" xmlns="http://www.w3.org/2000/svg"><path d="M27 54c-2 0-3.7-1.2-4.5-3-.3-.7-.8-1.2-1.6-1.4-.7-.2-1.4 0-2 .4-1.6 1.2-3.6 1.4-5.4.4-1.7-1-2.6-2.9-2.4-4.8.1-.7-.1-1.4-.7-2-.5-.5-1.2-.8-2-.7-2 .3-3.8-.6-4.8-2.4-1-1.7-.9-3.8.4-5.4.4-.6.6-1.3.4-2-.2-.7-.7-1.3-1.4-1.6-1.9-.8-3-2.5-3-4.5s1.2-3.7 3-4.5c.7-.3 1.2-.8 1.4-1.6.2-.7 0-1.4-.4-2-1.2-1.6-1.4-3.6-.4-5.4 1-1.7 2.9-2.6 4.8-2.4.7.1 1.4-.1 2-.7.5-.5.8-1.2.7-2-.3-2 .6-3.8 2.4-4.8 1.7-1 3.8-.9 5.4.4.6.4 1.3.6 2 .4.7-.2 1.3-.7 1.6-1.4.8-1.9 2.5-3 4.5-3s3.7 1.2 4.5 3c.3.7.8 1.2 1.6 1.4.7.2 1.4 0 2-.4 1.6-1.2 3.6-1.4 5.4-.4 1.7 1 2.6 2.9 2.4 4.8-.1.7.1 1.4.7 2 .5.5 1.2.8 2 .7 2-.3 3.8.6 4.8 2.4 1 1.7.9 3.8-.4 5.4-.5.6-.6 1.3-.4 2 .2.7.7 1.3 1.4 1.6 1.9.8 3 2.5 3 4.5s-1.2 3.7-3 4.5c-.7.3-1.2.8-1.4 1.6-.2.7 0 1.4.4 2 1.2 1.6 1.4 3.6.4 5.4-1 1.7-2.9 2.6-4.8 2.4-.7-.1-1.4.1-2 .7-.5.5-.8 1.2-.7 2 .3 2-.6 3.8-2.4 4.8-1.7 1-3.8.9-5.4-.4-.6-.4-1.3-.6-2-.4-.7.2-1.3.7-1.6 1.4-.7 1.9-2.5 3-4.5 3zm-6.6-6.9c.4 0 .8.1 1.3.2 1.5.4 2.6 1.4 3.2 2.8.4.9 1.2 1.4 2.2 1.4 1 0 1.8-.5 2.2-1.4.6-1.4 1.7-2.4 3.2-2.8 1.5-.4 3-.1 4.2.8.8.6 1.7.7 2.6.2.8-.5 1.3-1.4 1.1-2.3-.2-1.5.3-3 1.4-4.1 1.1-1.1 2.6-1.6 4.1-1.4 1 .1 1.8-.3 2.3-1.1.5-.8.4-1.8-.2-2.6-.9-1.2-1.2-2.7-.8-4.2.4-1.5 1.4-2.6 2.8-3.2.9-.4 1.4-1.2 1.4-2.2 0-1-.5-1.8-1.4-2.2-1.4-.6-2.4-1.7-2.8-3.2-.4-1.5-.1-3 .8-4.2.6-.8.7-1.7.2-2.6-.5-.8-1.4-1.3-2.3-1.1-1.5.2-3-.3-4.1-1.4-1.1-1.1-1.6-2.6-1.4-4.1.1-1-.3-1.8-1.1-2.3-.8-.5-1.8-.4-2.6.2-1.2.9-2.7 1.2-4.2.8-1.5-.4-2.6-1.4-3.2-2.8-.4-.9-1.2-1.4-2.2-1.4-1 0-1.8.5-2.2 1.4-.6 1.4-1.7 2.4-3.2 2.8-1.5.4-3 .1-4.2-.8-.8-.6-1.7-.7-2.6-.2-.8.5-1.3 1.4-1.1 2.3.2 1.5-.3 3-1.4 4.1-1.1 1.1-2.6 1.6-4.1 1.4-1-.1-1.8.3-2.3 1.1-.5.8-.4 1.8.2 2.6.9 1.2 1.2 2.7.8 4.2-.4 1.5-1.4 2.6-2.8 3.2-.9.4-1.4 1.2-1.4 2.2 0 1 .5 1.8 1.4 2.2 1.4.6 2.4 1.7 2.8 3.2.4 1.5.1 3-.8 4.2-.6.8-.7 1.7-.2 2.6.5.8 1.4 1.3 2.3 1.1 1.5-.2 3 .3 4.1 1.4 1.1 1.1 1.6 2.6 1.4 4.1-.1 1 .3 1.8 1.1 2.3.8.5 1.8.4 2.6-.2.8-.7 1.8-1 2.9-1z" fill="#0E6FFF"/><path d="M22.7 40.7h-9.1V21.3h9.1v19.4zm-6.5-2.5h4.1V23.8h-4.1v14.4z" fill="#0E6FFF"/><path d="M36.1 40.7H24.9L21 39.3l.9-2.3 3.4 1.3h10.8c.6 0 1.1-.5 1.2-1.1l.6-12.1c0-.3-.1-.6-.3-.9-.2-.2-.5-.4-.8-.4H26.6l.9-1.8c1.6-3.2 1.9-4.2 1.8-7.3 0-.5-.4-1-.9-1.2-.3 2.9-1.6 5.5-3.6 7.6l-2.4 2.4-1.8-1.8 2.4-2.4c1.8-1.7 2.8-4 3-6.5.1-1 .9-1.9 2-1.9 2.1 0 3.8 1.7 3.8 3.7.1 3-.2 4.5-1.2 6.7h6.2c1 0 2 .4 2.7 1.1.7.7 1.1 1.7 1 2.7l-.6 12.1c-.2 2-1.8 3.5-3.8 3.5z" fill="#0E6FFF"/></svg>