<svg width="20" height="20" viewBox="0 0 20 20" fill="none" xmlns="http://www.w3.org/2000/svg">
<path d="M6.66667 10.575L14.1583 17.1667C14.2449 17.2433 14.3499 17.2961 14.4631 17.3199C14.5763 17.3437 14.6937 17.3376 14.8038 17.3023C14.9139 17.267 15.0129 17.2037 15.0912 17.1186C15.1694 17.0334 15.2241 16.9294 15.25 16.8167L18.3833 3.13334C18.4096 3.0155 18.4034 2.89273 18.3653 2.77815C18.3273 2.66357 18.2588 2.56147 18.1673 2.48276C18.0757 2.40404 17.9645 2.35167 17.8455 2.33122C17.7265 2.31078 17.6042 2.32303 17.4917 2.36667L2.10833 8.40834C1.49167 8.65 1.575 9.55 2.225 9.68334L6.66667 10.575Z" stroke="black" stroke-width="1.2" stroke-linecap="round" stroke-linejoin="round"/>
<path d="M6.66667 10.575L18.0083 2.38336" stroke="black" stroke-width="1.2" stroke-linecap="round" stroke-linejoin="round"/>
<path d="M10.4083 13.8667L7.80833 16.4667C7.71558 16.5609 7.59691 16.6254 7.46742 16.6519C7.33793 16.6785 7.20345 16.666 7.08109 16.616C6.95872 16.566 6.85399 16.4807 6.78019 16.371C6.7064 16.2613 6.66689 16.1322 6.66667 16V10.575" stroke="black" stroke-width="1.2" stroke-linecap="round" stroke-linejoin="round"/>
</svg>
