<svg width="24" height="24" viewBox="0 0 24 24" fill="none" xmlns="http://www.w3.org/2000/svg">
<path d="M8 12.69L16.99 20.6C17.0939 20.692 17.2199 20.7553 17.3557 20.7839C17.4915 20.8124 17.6324 20.8051 17.7645 20.7628C17.8967 20.7204 18.0155 20.6444 18.1094 20.5422C18.2033 20.4401 18.269 20.3152 18.3 20.18L22.06 3.75998C22.0915 3.61857 22.0841 3.47125 22.0384 3.33376C21.9927 3.19626 21.9106 3.07374 21.8007 2.97928C21.6909 2.88483 21.5574 2.82198 21.4146 2.79744C21.2719 2.77291 21.1251 2.78761 20.99 2.83998L2.53 10.09C1.79 10.38 1.89 11.46 2.67 11.62L8 12.69Z" stroke="black" stroke-width="1.3" stroke-linecap="round" stroke-linejoin="round"/>
<path d="M8 12.69L21.61 2.85999" stroke="black" stroke-width="1.3" stroke-linecap="round" stroke-linejoin="round"/>
<path d="M12.49 16.64L9.37 19.76C9.25869 19.873 9.11629 19.9504 8.9609 19.9823C8.80551 20.0142 8.64414 19.9992 8.4973 19.9392C8.35046 19.8792 8.22478 19.7768 8.13623 19.6452C8.04769 19.5136 8.00027 19.3586 8 19.2V12.69" stroke="black" stroke-width="1.3" stroke-linecap="round" stroke-linejoin="round"/>
</svg>
