<svg width="24" height="24" viewBox="0 0 24 24" fill="none" xmlns="http://www.w3.org/2000/svg">
<path d="M20 7.51539C18.9656 7.60464 18.0212 7.51539 17.0768 7.20302C16.9418 7.1584 16.8069 7.20302 16.672 7.24765C16.5371 7.3369 16.4921 7.47077 16.4921 7.60464V16.6187C16.4921 16.6634 16.4921 16.708 16.4471 16.7526C16.2223 20.2333 13.2541 23 9.74593 23C6.01318 23 3 20.0102 3 16.3064C3 12.8257 5.60843 9.96973 9.07108 9.6571V13.9857C8.0367 14.298 7.27216 15.2351 7.27216 16.3061C7.27216 17.6448 8.39649 18.7604 9.74567 18.7604C10.9599 18.7604 11.9943 17.868 12.1742 16.7077C12.2192 16.6631 12.2192 16.5739 12.2192 16.5292V1H15.9519C16.0419 1.58012 16.2667 2.07098 16.5815 2.51722C17.3461 3.54358 18.6953 4.07907 19.9995 3.7667L20 7.51539Z" stroke="black" stroke-width="1.3" stroke-linecap="round" stroke-linejoin="round"/>
</svg>
