<svg width="228" height="17" viewBox="0 0 228 17" fill="none" xmlns="http://www.w3.org/2000/svg">
<path d="M213.619 17V0.200012H220.531C222.019 0.200012 223.291 0.440012 224.347 0.920013C225.419 1.40001 226.243 2.08801 226.819 2.98401C227.395 3.88001 227.683 4.94401 227.683 6.17601C227.683 7.40801 227.395 8.47201 226.819 9.36801C226.243 10.248 225.419 10.928 224.347 11.408C223.291 11.872 222.019 12.104 220.531 12.104H215.347L216.739 10.688V17H213.619ZM224.611 17L220.363 10.904H223.699L227.971 17H224.611ZM216.739 11.024L215.347 9.53601H220.387C221.763 9.53601 222.795 9.24001 223.483 8.64801C224.187 8.05601 224.539 7.23201 224.539 6.17601C224.539 5.10401 224.187 4.28001 223.483 3.70401C222.795 3.12801 221.763 2.84001 220.387 2.84001H215.347L216.739 1.30401V11.024Z" fill="black"/>
<path d="M205.955 17V0.200012H209.075V17H205.955Z" fill="black"/>
<path d="M183.033 17V0.200012H185.601L192.945 12.464H191.601L198.825 0.200012H201.393L201.417 17H198.465L198.441 4.83201H199.065L192.921 15.08H191.529L185.289 4.83201H186.009V17H183.033Z" fill="black"/>
<path d="M175.369 17V0.200012H178.489V17H175.369Z" fill="black"/>
<path d="M155.541 17V0.200012H162.885C164.709 0.200012 166.309 0.552012 167.685 1.25601C169.061 1.96001 170.133 2.93601 170.901 4.18401C171.669 5.43201 172.053 6.90401 172.053 8.60001C172.053 10.28 171.669 11.752 170.901 13.016C170.133 14.264 169.061 15.24 167.685 15.944C166.309 16.648 164.709 17 162.885 17H155.541ZM158.661 14.36H162.741C164.005 14.36 165.093 14.12 166.005 13.64C166.933 13.16 167.645 12.488 168.141 11.624C168.653 10.76 168.909 9.75201 168.909 8.60001C168.909 7.43201 168.653 6.42401 168.141 5.57601C167.645 4.71201 166.933 4.04001 166.005 3.56001C165.093 3.08001 164.005 2.84001 162.741 2.84001H158.661V14.36Z" fill="black"/>
<path d="M135.189 17L142.749 0.200012H145.821L153.405 17H150.141L143.637 1.85601H144.885L138.405 17H135.189ZM138.669 13.112L139.509 10.664H148.581L149.421 13.112H138.669Z" fill="black"/>
<path d="M123.174 17V0.200012H126.294V14.36H135.078V17H123.174Z" fill="black"/>
<path d="M111.009 17L103.665 0.200012H107.049L113.601 15.392H111.657L118.281 0.200012H121.401L114.081 17H111.009Z" fill="black"/>
<path d="M87.6692 17V10.352L88.3652 12.272L81.0692 0.200012H84.4052L90.2612 9.92001H88.3892L94.2932 0.200012H97.3652L90.0692 12.272L90.7892 10.352V17H87.6692Z" fill="black"/>
<path d="M70.5305 7.18401H78.8825V9.75201H70.5305V7.18401ZM70.7705 14.384H80.2505V17H67.6505V0.200012H79.9145V2.81601H70.7705V14.384Z" fill="black"/>
<path d="M49.5324 17L56.6124 7.25601V9.60801L49.8684 0.200012H53.3964L58.4124 7.16001L56.9724 7.18401L61.9404 0.200012H65.3244L58.6284 9.44001V7.18401L65.7564 17H62.1564L56.8764 9.60801H58.2924L53.0844 17H49.5324Z" fill="black"/>
<path d="M38.5618 7.18401H46.9138V9.75201H38.5618V7.18401ZM38.8018 14.384H48.2818V17H35.6818V0.200012H47.9458V2.81601H38.8018V14.384Z" fill="black"/>
<path d="M21.3146 17V0.200012H24.4346V14.36H33.2186V17H21.3146Z" fill="black"/>
<path d="M0.962036 17L8.52204 0.200012H11.594L19.178 17H15.914L9.41004 1.85601H10.658L4.17804 17H0.962036ZM4.44204 13.112L5.28204 10.664H14.354L15.194 13.112H4.44204Z" fill="black"/>
</svg>
